# xmcd CD database file
#
# Track frame offsets:
#	150
#	22680
#	45088
#	70648
#	91757
#	124872
#	137738
#	155876
#	179164
#	200130
#	231681
#	248495
#	262142
#	275134
#	285571
#
# Disc length: 4226 seconds
#
# Revision: 0
# Processed by: cddbd v1.5.2PL0 Copyright (c) Steve Scherf et al.
# Submitted via: CDex 1.70beta2
#
DISCID=df10800f
DTITLE=Doctor Gabs - Live at Hôtel de Paris, Monte-Carlo
DYEAR=2006
DGENRE=Jazz
TTITLE0=01 - Fly me to the moon (Bart Howard)
TTITLE1=02 - Gambling night (Doctor Gabs)
TTITLE2=03 - Banana boat song (Harry Belafonte/Trad)
TTITLE3=04 - Casino ragtime (Doctor Gabs)
TTITLE4=05 - Out of the blue (Doctor Gabs)
TTITLE5=06 - Champagne boogie woogie (Doctor Gabs)
TTITLE6=07 - Where or when (Hart/Rodgers)
TTITLE7=08 - What'd I say (Ray Charles)
TTITLE8=09 - Hotel de Paris (Doctor Gabs)
TTITLE9=10 - Autumn leaves (J.Kosma/J.prévert)
TTITLE10=11 - Monte-Carlo (Doctor Gabs)
TTITLE11=12 - Blueberry hill (Lewis/Stock/Rose)
TTITLE12=13 - le boogie du bar américain (Doctor Gabs)
TTITLE13=14 - The lady is a tramp (Hart/Rodgers)
TTITLE14=15 - Twilight time and only you (M. and A.Nvins - B.Ram and A.Rand)
EXTD=YEAR: 2006
EXTT0=
EXTT1=
EXTT2=
EXTT3=
EXTT4=
EXTT5=
EXTT6=
EXTT7=
EXTT8=
EXTT9=
EXTT10=
EXTT11=
EXTT12=
EXTT13=
EXTT14=
PLAYORDER=
